<svg xmlns="http://www.w3.org/2000/svg" id="Layer_1" data-name="Layer 1" viewBox="0 0 393.5 490"><defs><style>      .cls-1{fill:#45D300;        fill-rule: evenodd;        stroke-width: 0px;      }    </style></defs><path class="cls-1" d="M95.61,162.1c-.2.08-.4.17-.59.25-5.86,2.65-10.37,7.37-14.14,13.31-.51.81-.78,1.74-.78,2.69v12.25c0,1.65.82,3.19,2.18,4.12,1.36.93,3.1,1.13,4.64.53,2.79-1.08,5.63-2,8.53-2.74-1.84,141.78.17,237.83,9.53,267.82.33,1.04.98,1.95,1.88,2.58,25.18,17.9,55.02,25.55,89.67,27.09h.44c34.65-1.54,64.49-9.19,89.67-27.09.9-.63,1.55-1.54,1.88-2.58,9.37-30.01,11.37-126.13,9.52-268.01,3.17.77,6.27,1.75,9.3,2.93,1.54.6,3.28.4,4.64-.53,1.36-.93,2.18-2.47,2.18-4.12v-12.25c0-.95-.27-1.88-.78-2.69-3.77-5.94-8.28-10.66-14.14-13.31-.44-.2-.89-.39-1.36-.56-.46-31.91-1.1-57.43-1.88-93.1-.01-.41-.07-.82-.18-1.21-6.62-24.11-17.96-40.97-34.39-51.87C245.21,4.86,223.89-.09,196.75,0c-27.14-.09-48.46,4.86-64.68,15.61-16.43,10.9-27.77,27.76-34.39,51.87-.11.39-.17.8-.17,1.21-.79,35.79-1.44,61.36-1.9,93.41ZM135.94,437.94l-6.31,8.04c-1.12,1.43-2.94,2.14-4.74,1.84l-13.07-2.16c.68,3.87,1.43,7.23,2.23,10.08,23.32,16.07,50.88,22.82,82.7,24.26,31.83-1.44,59.38-8.19,82.7-24.26.8-2.85,1.55-6.22,2.23-10.08l-13.07,2.16c-1.8.3-3.62-.41-4.74-1.84l-6.31-8.04c-13.07,13.29-31.49,20.23-60.79,20.1-29.33.14-47.76-6.81-60.83-20.1ZM142.18,430c11.54,12.25,28.08,18.16,54.55,18.04h.04c26.47.12,43.01-5.79,54.55-18.04l-1.9-2.41h-105.34l-1.9,2.41ZM287.86,160.03c-.46-30.81-1.09-55.89-1.85-90.5-5.89-21.07-15.66-36-30.11-45.59-14.8-9.81-34.35-14.02-59.13-13.94h-.04c-24.78-.08-44.33,4.13-59.13,13.94-14.45,9.59-24.22,24.52-30.11,45.59-.76,34.61-1.39,59.69-1.85,90.51,1.89-.03,3.88.1,6.01.42.03-.83.06-1.66.1-2.5.1-2.52,2.07-4.57,4.58-4.78,2.52-.21,4.79,1.49,5.31,3.96,16.55,79.73,18.46,165.72,21.43,240.85.04.97-.2,1.93-.7,2.77l-8.01,13.33c-1.09,1.82-3.2,2.75-5.28,2.33-2.07-.42-3.66-2.1-3.95-4.2-11.14-78.82-15.4-152.38-14.3-221.84-1.8.05-3.59.17-5.35.35-1.54,116.02-.72,201.3,4.78,244.54l13.34,2.2,14.12-17.97c.95-1.21,2.4-1.91,3.93-1.91h110.2c1.53,0,2.98.7,3.93,1.91l14.12,17.97,13.34-2.2c5.5-43.25,6.32-128.57,4.78-244.62-1.76-.16-3.55-.26-5.35-.29,1.1,69.46-3.16,143.03-14.3,221.86-.29,2.1-1.88,3.78-3.95,4.2-2.08.42-4.19-.51-5.28-2.33l-8.01-13.33c-.48-.82-.73-1.75-.71-2.7,1.88-75.15,3.91-161.21,21.45-240.97.54-2.46,2.82-4.13,5.33-3.91,2.5.22,4.45,2.27,4.55,4.78.04.88.07,1.75.11,2.63,2.12-.37,4.11-.54,6-.56ZM260.48,396.12l12.35-188.12c-9.27,63.76-10.89,129.25-12.35,188.12ZM132.98,395.74l-12.32-184.18c0,58.25,3.82,119.43,12.32,184.18ZM353.81,188.05c17.95,12.57,29.69,33.4,29.69,56.95s-11.74,44.38-29.69,56.95c-2.26,1.58-2.81,4.7-1.22,6.96,1.58,2.26,4.7,2.81,6.96,1.23,20.52-14.38,33.95-38.2,33.95-65.14s-13.43-50.76-33.95-65.14c-2.26-1.58-5.38-1.03-6.96,1.23-1.59,2.26-1.04,5.38,1.22,6.96ZM33.95,179.86C13.43,194.24,0,218.06,0,245s13.43,50.76,33.95,65.14c2.26,1.58,5.38,1.03,6.96-1.23,1.59-2.26,1.04-5.38-1.22-6.96-17.95-12.57-29.69-33.4-29.69-56.95s11.74-44.38,29.69-56.95c2.26-1.58,2.81-4.7,1.22-6.96-1.58-2.26-4.7-2.81-6.96-1.23ZM162.06,298.54h69.38c10.37,0,18.78-8.41,18.78-18.77v-27.55c0-10.36-8.41-18.78-18.78-18.78h-69.38c-10.37,0-18.78,8.42-18.78,18.78v27.55c0,10.36,8.41,18.77,18.78,18.77ZM339.1,209.1c11.31,7.93,18.72,21.05,18.72,35.9s-7.41,27.98-18.72,35.9c-2.26,1.58-2.81,4.7-1.22,6.96,1.58,2.26,4.7,2.81,6.96,1.23,13.89-9.73,22.98-25.86,22.98-44.09s-9.09-34.36-22.98-44.09c-2.26-1.58-5.38-1.03-6.96,1.23-1.59,2.26-1.04,5.38,1.22,6.96ZM48.66,200.91c-13.89,9.73-22.98,25.86-22.98,44.09s9.09,34.36,22.98,44.09c2.26,1.58,5.38,1.03,6.96-1.23,1.59-2.26,1.04-5.38-1.22-6.96-11.31-7.92-18.72-21.05-18.72-35.9s7.41-27.97,18.72-35.9c2.26-1.58,2.81-4.7,1.22-6.96-1.58-2.26-4.7-2.81-6.96-1.23ZM231.44,288.54h-69.38c-4.85,0-8.78-3.93-8.78-8.77v-27.55c0-4.84,3.93-8.78,8.78-8.78h69.38c4.85,0,8.78,3.94,8.78,8.78v27.55c0,4.84-3.93,8.77-8.78,8.77ZM62.63,220.91c-7.59,5.32-12.55,14.13-12.55,24.09s4.96,18.78,12.55,24.09c2.26,1.58,5.38,1.04,6.97-1.22,1.58-2.26,1.03-5.38-1.23-6.97-5.01-3.51-8.29-9.32-8.29-15.9s3.28-12.39,8.29-15.9c2.26-1.58,2.81-4.71,1.23-6.97-1.59-2.26-4.71-2.8-6.97-1.22ZM325.13,229.1c5.01,3.51,8.29,9.32,8.29,15.9s-3.28,12.39-8.29,15.9c-2.26,1.59-2.81,4.71-1.23,6.97,1.59,2.26,4.71,2.8,6.97,1.22,7.59-5.31,12.55-14.13,12.55-24.09s-4.96-18.77-12.55-24.09c-2.26-1.58-5.38-1.04-6.97,1.22-1.58,2.26-1.03,5.39,1.23,6.97ZM196.66,204.81h.18c23.54-.42,42.34,2.29,57.9,7.2,1.39.44,2.9.25,4.14-.52s2.08-2.04,2.3-3.48l11.16-71.89c.21-1.39-.17-2.8-1.05-3.9-12.08-15-36.9-23.38-74.43-24.17h-.22c-37.53.79-62.35,9.17-74.43,24.17-.88,1.1-1.26,2.51-1.05,3.9l11.16,71.89c.22,1.44,1.06,2.71,2.3,3.48s2.75.96,4.14.52c15.56-4.91,34.36-7.62,57.9-7.2ZM196.75,194.81c-22.05-.39-40.16,1.88-55.43,6.03l-9.92-63.97c11.26-12.27,33.26-18.13,65.34-18.82,32.1.69,54.1,6.55,65.36,18.82l-9.92,63.97c-15.27-4.15-33.38-6.42-55.44-6.03h.01ZM282.47,180.36c7.56.09,14.77,1.22,21.69,3.25v-3.78c-2.48-3.66-5.3-6.68-9.03-8.36-3.47-1.57-7.66-1.89-12.92-.77.1,3.21.18,6.43.26,9.66ZM111.3,170.55c-4.91-.94-8.87-.57-12.17.92-3.73,1.68-6.55,4.7-9.03,8.36v3.78c6.69-1.96,13.65-3.09,20.93-3.24.08-3.28.17-6.56.27-9.82Z"></path></svg>