<svg xmlns="http://www.w3.org/2000/svg" id="Layer_1" data-name="Layer 1" viewBox="0 0 6325.93 3000.39"><defs><style>      .cls-1{fill:#45D300;        stroke-width: 0px;      }    </style></defs><path class="cls-1" d="M5597.97,1710.76c8.26-14.68,26.74-19.92,41.42-11.67s19.92,26.74,11.67,41.42l-347.08,618.4c-8.26,14.68-26.74,19.92-41.42,11.67s-19.92-26.74-11.67-41.42l347.08-618.4ZM5673.33,2001.08c7.86-14.81,26.21-20.58,41.03-12.71s20.58,26.21,12.71,41.03l-140.9,266.21c-7.86,14.81-26.21,20.58-41.03,12.71s-20.58-26.21-12.71-41.03l140.9-266.21ZM1874.47,1441.93c.52,146.93,1.7,616.17-5.37,645.27-5.37,22.41-19.4,45.09-34.34,69.34-12.58,20.58-26.08,42.47-32.9,62.78-9.96,30.15,0,60.69,73.4,84.93l20.71,6.82c.13,36.31-.26,72.48-.52,108.79l104.6,3.15c1.31-34.21,2.62-68.55,4.19-102.76l19.53-6.82c83.1-28.84,92.41-60.42,81.4-92.01-5.51-15.73-15.2-33.16-24.9-50.46-14.55-26.08-28.84-51.64-33.55-78.51-5.24-29.75-9.57-479.85-10.49-580.12-11.4-4.98-22.41-10.09-34.08-15.34-33.42-15.2-71.04-32.24-119.41-51.64-2.88-1.18-5.77-2.23-8.65-3.41h.39ZM2097.43,1537.22c.52,54.39,1.44,150.6,2.75,247.33,81.26,24.51,150.73,66.06,200.15,118.49,53.08,56.1,83.23,124.65,81,198.31-2.36,78.25-40.89,148.64-103.81,203.03-55.71,48.23-130.55,83.76-215.88,100.66l-3.15,80.48-224-6.68.52-73.27c-95.68-18.35-179.04-59.64-238.81-114.95-63.83-59.11-101.06-134.35-98.7-215.61,2.36-77.73,40.5-147.72,102.5-201.98,55.18-48.23,129.63-84.02,214.3-101.32v-115.74c-14.29,7.86-29.62,16.25-44.3,24.38-33.03,18.09-62.91,34.47-67.37,37.36-126.75,81.92-325.58,162.53-540.15,228.46-222.56,68.29-462.82,121.24-657.33,143.65-7.21,18.74-14.42,37.62-21.76,56.36-57.67,147.19-121.5,294.65-192.15,436.21,543.56,85.85,1151.21,97.12,1698.04,107.22,51.51.92,102.5,1.97,149.95,2.88,979.89,19.27,2115.63-.52,2924.22-80.87,319.03-31.72,586.68-72.74,772.93-124.39,172.88-47.97,271.32-101.06,267.65-159.12-.26-3.28-.79-6.68-1.7-10.22h0c-111.8-412.35-196.48-685.24-291.64-991.56-33.55-108-68.42-220.33-109.18-354.29-141.43-464.39-413.66-474.09-939.92-492.7-26.08-.92-52.82-1.84-80.22-2.88-294.91-11.01-1193.15-36.57-2073.03-42.73-492.83-3.41-980.16-.92-1353.06,13.63,5.77,3.15,11.53,6.16,17.3,9.18,33.55,16.91,66.06,33.03,98.04,48.76,160.69,79.43,307.63,152.04,486.15,282.85,4.59-.92,9.44-1.84,14.68-2.75,5.77-1.05,11.14-1.97,16.25-2.75l3.54-78.38,223.48,6.68.39,81.79c48.5,11.8,93.45,29.62,133.3,52.17,40.37,22.94,75.37,50.86,103.42,82.31,32.51,3.8,65.01,8.39,97.26,15.07,139.2,29.1,255.33,76.68,384.04,129.37,59.9,24.51,122.68,50.33,193.86,76.41,22.15,8.13,58.33,23.86,94.24,39.32,38.67,16.78,76.81,33.29,93.59,38.93-6.03-10.75-11.4-21.89-15.99-33.16-12.98-32.37-19.53-66.85-18.48-102.37,2.36-79.95,42.6-151.52,107.74-206.44,61.08-51.38,144.31-87.95,238.42-101.97l3.54-78.25,223.48,6.68.39,81.79c87.29,21.23,162.79,61.73,217.32,114.43,60.42,58.33,95.29,131.47,92.93,210.24-1.84,59.64-24.64,114.56-63.18,161.61-33.55,40.76-79.04,75.37-132.78,101.32,4.85,9.7,9.31,20.97,12.19,36.04,5.77,30.02-.52,56.36-5.51,77.2-1.44,6.03-2.75,11.27-3.15,15.6-.92,8.39-.13,20.45.66,33.95,1.31,19.27,2.75,41.16.26,65.54-4.46,43.38-30.28,73.53-42.86,88.21-1.57,1.84-2.75,3.28-3.15,3.8-2.88,3.67-7.08,7.73-11.8,11.67-7.21,5.9-16.78,12.45-25.17,16.91-14.81,7.86-30.54,10.62-43.12,3.93-.26,16.38-.52,34.47-.79,53.48,78.38,24.77,145.49,65.54,193.59,116.39,53.08,56.1,83.23,124.65,81,198.31-2.36,78.25-40.89,148.64-103.81,203.03-55.71,48.23-130.55,83.76-215.88,100.66l-3.15,80.48-224-6.68.52-73.27c-95.68-18.35-179.04-59.64-238.81-114.95-63.83-59.11-101.06-134.35-98.7-215.61,2.36-77.73,40.5-147.72,102.5-201.98,58.33-50.86,137.89-87.95,228.33-103.94,2.1-44.96,3.8-83.76,4.85-106.56l-1.97-.39c-24.12-4.33-50.99-10.22-77.46-16.12-29.75-6.68-60.29-13.76-87.16-20.19-32.64-7.73-58.06-14.16-70.25-17.43-25.56-6.95-52.04-11.93-79.04-15.6-27.66-3.67-56.36-5.9-85.85-6.95-88.34-3.28-185.2,3.28-284.56,9.96-152.57,10.35-310.9,21.1-461.9-2.36-49.68-7.73-98.04-17.69-143.79-30.15-28.18-7.73-55.84-16.38-82.58-26.21l-.26.26ZM2102.02,1911.82c1.44,89.26,3.15,160.17,4.98,170.13,3.01,17.04,14.68,38.01,26.61,59.38,2.23,3.93,4.46,7.86,6.55,11.93,14.29-11.67,26.35-24.64,35.52-38.67,12.98-19.66,20.45-41.55,21.1-64.49.92-31.85-11.27-62.26-33.16-88.47-15.86-19.14-36.83-36.04-61.73-49.81h.13ZM2165.45,2210.28c11.27,37.88,9.44,74.71-24.77,107.48,37.09-15.73,69.86-35.78,97.12-59.38,50.2-43.38,81-98.57,82.84-158.86,1.7-56.62-22.41-110.23-64.62-154.93-29.62-31.46-68.29-58.46-113.25-79.17,26.48,16.25,49.28,35.65,67.5,57.41,31.2,37.36,48.63,81.66,47.19,128.97-1.05,34.73-12.06,67.24-31.2,96.08-15.47,23.59-36.18,44.56-60.82,62.39ZM1789.15,2331.12c-53.48-34.73-60.03-77.99-47.45-122.68-27.79-19.79-50.72-43.25-67.24-69.47-20.19-31.98-31.06-67.76-29.88-105.51,1.44-47.71,21.76-91.1,55.44-126.75,29.1-30.67,68.42-55.57,114.16-71.96v-.92c-69.21,15.86-129.37,45.61-174.19,84.67-49.55,43.25-80.08,98.17-81.79,157.94-1.84,62.91,27.92,122.03,79.17,169.48,39.58,36.57,91.62,66.19,151.78,85.2ZM1767.13,2151.42c5.24-9.18,10.75-18.09,16.12-26.87,12.32-20.05,23.86-38.67,26.87-51.51,2.1-8.78,3.28-79.82,3.8-172.75-27.79,12.58-51.64,28.97-69.86,48.37-23.72,24.9-37.88,54.66-38.8,86.51-.79,25.03,6.68,49.28,20.71,71.3,10.35,16.38,24.38,31.59,41.29,44.96h-.13ZM1814.31,1586.37c-.13-73.53-.39-135.14-.52-166.33-35.78-11.8-74.84-23.33-115.74-34.47-41.42-11.27-84.28-21.89-127.01-31.85-9.18,3.54-18.48,7.08-27.66,10.49,9.18,39.32,31.59,92.27,59.51,144.44,29.23,54.53,63.96,106.95,95.55,141.43,12.19-6.82,27-14.81,42.47-23.33,26.08-14.29,54-29.62,73.4-40.5v.13ZM1027.88,1161.04c34.6,10.09,70.65-3.93,104.73-33.55,41.16-35.65,78.64-92.67,108.27-158.86,30.02-67.11,51.38-143.13,59.77-215.61,12.06-104.33-2.75-199.36-58.33-243.92-36.57-18.74-71.96-41.94-108.92-66.19-62.52-41.03-130.02-85.33-215.74-113.9-67.11-22.28-139.07-54.13-194.25-100.53-58.46-49.15-98.3-113.64-95.81-198.97.52-16.78,14.42-29.88,31.2-29.49,16.78.52,29.88,14.42,29.49,31.2-1.97,63.57,28.84,112.72,74.19,150.6,37.36,31.33,84.41,55.44,131.86,74.19,377.62-26.35,948.96-34.34,1542.06-32.77,972.55,2.49,2001.86,30.28,2328.23,43.25,31.06,1.18,58.06,2.23,84.54,3.28,584.84,22.15,887.49,33.69,1049.36,601.1,45.48,159.51,81,281.41,115.08,398.72,101.32,348.13,191.5,658.24,308.41,1118.57,3.15,12.19,4.33,24.38,3.8,36.57-5.64,125.04-215.88,219.28-558.37,287.97-329.78,66.19-786.17,112.59-1299.97,142.48-1518.34,88.34-3542.88,33.03-4277.93-81.92-42.47,74.32-87.16,146.01-134.22,214.04-9.57,13.76-28.44,17.3-42.21,7.73s-17.3-28.44-7.73-42.21c168.17-243.53,306.97-536.35,421.66-828.9,115.08-293.86,205.39-586.81,276.3-829.95,54.13-185.47,103.28-211.55,189.79-186.25,21.1,6.16,42.99,15.47,68.16,26.21,19.92,8.52,41.81,17.83,66.85,27l-.26.13ZM1346.25,560.87c19.4,57.15,23.2,126.75,14.81,199.1-9.04,78.25-32.24,160.56-64.75,233.44-33.03,73.79-75.89,138.41-123.99,180.09-10.62,9.18-21.5,17.3-32.51,24.25,77.86,22.28,149.03,36.18,229.77,51.9,22.68,4.46,46.4,9.04,83.89,16.65h.13c85.2,17.3,176.55,38.01,260.31,60.82,71.04,19.27,137.63,40.11,191.89,62,50.72,20.32,88.47,37.49,121.77,52.69,18.48,8.39,35.78,16.25,51.25,22.81,36.44,15.6,75.89,28.97,117.31,40.24,44.83,12.19,90.83,21.76,137.1,28.97,143.79,22.41,299.11,11.8,448.66,1.7,100.53-6.82,198.44-13.5,290.72-9.96,31.33,1.18,62,3.54,91.62,7.47,17.04,2.23,33.69,4.98,49.81,8.26,70.78,3.93,111.94-22.94,130.15-59.9,7.6-15.47,11.53-32.9,12.32-50.86.79-18.35-1.97-36.96-7.73-54.66-12.45-38.27-38.8-70.25-74.19-78.64-16.78-2.1-33.16-4.33-48.89-6.68l-12.32-1.7c-17.56-2.62-66.58-23.86-116.26-45.35-33.69-14.55-67.63-29.36-91.1-38.01-69.47-25.56-134.22-52.04-195.95-77.33-125.83-51.51-239.34-98.04-373.29-126.09-54.53-11.4-110.49-16.65-166.07-21.76-69.21-6.42-137.89-12.85-204.08-30.54-10.35-2.75-23.2-5.64-36.44-8.52-48.76-10.75-103.02-22.54-150.08-59.11-5.9-4.59-11.67-9.04-17.43-13.5l-1.18.92-3.67-4.46c-190.84-145.23-343.67-220.99-511.57-303.96v-.26ZM3532.54,1670.52c-4.06,92.27-17.69,387.97-24.51,416.55-5.37,22.41-19.4,45.09-34.34,69.34-12.58,20.58-26.08,42.47-32.9,62.78-9.96,30.15-.13,60.69,73.4,84.93l20.71,6.82c.13,36.31-.26,72.48-.52,108.79l104.6,3.15c1.31-34.21,2.62-68.55,4.19-102.76l19.53-6.82c83.1-28.84,92.41-60.42,81.4-92.01-5.37-15.73-15.2-33.16-24.9-50.46-14.55-26.08-28.84-51.64-33.55-78.51-5.24-29.75-.52-349.18.79-427.29-6.42.52-13.37,1.18-20.58,1.97-32.9,3.28-71.96,7.08-115.08,4.72-6.16-.39-12.32-.79-18.48-1.31l.26.13ZM3744.22,1913.79c-.66,83.1-.52,156.37,1.57,168.17,3.01,17.04,14.68,38.01,26.61,59.38,2.23,3.93,4.46,7.86,6.55,11.93,14.29-11.67,26.35-24.64,35.52-38.67,12.98-19.66,20.45-41.55,21.1-64.49.92-31.85-11.27-62.26-33.16-88.47-15.2-18.22-35-34.47-58.33-47.84h.13ZM3804.38,2210.28c11.27,37.88,9.44,74.71-24.77,107.48,37.09-15.73,69.86-35.78,97.12-59.38,50.2-43.38,81-98.57,82.84-158.86,1.7-56.62-22.41-110.23-64.62-154.93-29.62-31.46-68.29-58.46-113.25-79.17,26.48,16.25,49.28,35.65,67.5,57.41,31.2,37.36,48.63,81.66,47.19,128.97-1.05,34.73-12.06,67.24-31.2,96.08-15.47,23.59-36.18,44.56-60.82,62.39ZM3428.07,2331.12c-53.48-34.73-60.03-77.99-47.45-122.68-27.79-19.79-50.72-43.25-67.24-69.47-20.19-31.98-31.06-67.76-29.88-105.51,1.44-47.71,21.76-91.1,55.44-126.75,30.67-32.37,72.48-58.2,121.37-74.45-72.22,15.47-135,45.88-181.27,86.25-49.55,43.25-80.08,98.17-81.79,157.94-1.84,62.91,27.92,122.03,79.17,169.48,39.58,36.57,91.62,66.19,151.78,85.2h-.13ZM3406.05,2151.42c5.24-9.18,10.75-18.09,16.12-26.87,12.32-20.05,23.86-38.67,26.87-51.51,2.88-11.93,7.6-89.78,12.06-176.29-31.33,12.98-58.06,30.67-78.25,51.9-23.72,24.9-37.88,54.66-38.8,86.51-.79,25.03,6.68,49.28,20.71,71.3,10.35,16.38,24.38,31.59,41.29,44.96ZM3710.14,1134.57c3.01-27.13,6.68-56.1,10.35-71.57,5.37-22.41,19.4-45.09,34.34-69.34,12.58-20.58,26.08-42.47,32.9-62.78,9.96-30.15,0-60.69-73.4-84.93l-20.71-6.82-.26-69.47-105.12-3.15-2.88,63.31-19.53,6.82c-83.1,28.84-92.41,60.42-81.4,92.01,5.37,15.73,15.2,33.16,24.9,50.46,14.55,26.08,28.84,51.64,33.55,78.51,4.33,24.25,6.68,85.2,7.6,116.26,54.66-31.33,107.09-56.62,159.78-39.45l-.13.13ZM3516.15,1193.81l-24.25.52c4.06,2.1,8.39,4.06,12.58,6.03,3.8-2.23,7.73-4.33,11.53-6.55h.13ZM3490.2,1193.42c-.26-10.09-2.49-97.26-7.47-125.3-3.01-17.04-14.68-38.01-26.61-59.38-8.78-15.86-17.69-31.85-24.77-48.76-9.96,9.83-18.48,20.45-25.3,31.72-11.01,18.35-17.43,38.54-18.09,59.51-.92,29.49,9.57,57.67,28.44,82.58,17.83,23.33,43.12,43.78,73.66,59.64h.13ZM3418.5,891.82c.66-6.03,1.84-12.06,3.67-17.96-36.04,15.07-68.03,34.34-94.9,56.89-52.17,43.91-84.28,100.14-86.11,161.74-.79,27,4.19,53.22,14.16,78.12,9.57,23.86,23.86,46.66,42.07,67.63,47.84,5.11,97.26,6.42,138.54-6.16-27-17.43-49.94-38.27-67.76-61.6-27.13-35.65-42.21-77.07-40.76-121.11.92-31.85,10.35-62,26.61-89,15.6-26.08,37.62-49.28,64.49-68.81v.26ZM3853.01,895.1c.13,1.7.26,3.54.39,5.24,26.48,20.71,48.1,45.09,63.05,72.09,16.38,29.36,24.9,61.6,23.99,95.29-1.18,38.01-14.42,73.53-36.96,104.46-18.35,25.03-42.6,47.05-71.57,65.01,7.6,14.94,12.32,34.34,11.53,62-.26,9.31.13,17.3.92,24.51v.39c44.7-21.89,82.31-50.59,109.71-84.02,30.15-36.7,47.97-79.3,49.41-124.65,1.84-60.82-26.08-118.23-74.45-164.89-21.63-20.84-47.32-39.58-76.28-55.57l.26.13ZM3838.33,968.37c-8.78,19.79-20.58,38.93-31.85,57.02-12.32,20.05-23.86,38.67-26.87,51.51-4.33,17.83-9.04,63.44-12.06,94.5,3.28,3.15,6.42,6.55,9.7,10.22,3.01,3.41,7.21,6.82,11.53,10.35,27.39-15.07,49.94-33.95,65.67-55.57,15.47-21.23,24.51-45.09,25.3-70.39.66-22.41-5.24-44.17-16.38-64.09-6.55-11.8-15.07-23.07-25.17-33.55h.13ZM1645.89,1681.66c-33.03-38.27-67.37-90.83-96.21-144.57-28.44-53.08-51.77-108.13-63.31-152.44-114.56,39.58-230.82,70.65-346.82,93.98-149.55,30.02-298.71,47.05-443.81,52.82-47.97,155.98-103.02,323.88-166.07,494.01,185.34-23.86,408.03-73.92,615.38-137.63,196.48-60.42,378.67-132.64,500.83-206.18ZM714.49,1469.85c135.53-6.42,274.2-22.81,413.14-50.72,111.28-22.28,222.82-52.04,333.05-89.78-6.42-1.31-12.71-2.62-19.01-3.93-21.1-4.33-52.69-10.49-83.23-16.38-120.19-23.46-219.55-42.73-351.01-90.96-25.56-9.44-48.89-19.4-69.86-28.31-23.72-10.09-44.3-19.01-61.21-23.86-46.14-13.5-74.71,8-114.56,144.97-14.81,50.99-30.54,104.2-47.19,159.12l-.13-.13ZM221.26,2716.61c749.73,112.2,2743.07,165.15,4242.93,77.86,511.44-29.75,965.08-75.76,1291.32-141.3,313.52-62.91,505.41-139.59,509.61-231.21.26-6.03-.39-12.32-2.1-18.87-118.1-464.78-207.49-771.88-307.76-1116.6-38.54-132.64-78.77-270.66-115.34-398.98-149.82-525.07-437.26-535.95-993-557.06-28.7-1.05-58.06-2.23-84.8-3.28-326.37-13.11-1355.15-40.89-2325.87-43.25-526.91-1.31-1037.17,4.85-1409.16,24.9,50.72,25.17,94.9,53.87,136.71,81.4,382.73-17.83,910.43-21.23,1444.81-17.43,881.72,6.16,1780.22,31.72,2075,42.73,27.39,1.05,54.13,1.97,80.22,2.88,554.7,19.66,841.74,29.88,995.75,535.69,36.96,121.5,73.79,239.99,109.18,354.03,95.94,309.07,181.4,584.32,292.29,993.39v.13c1.97,7.34,3.28,14.81,3.67,22.28,5.77,92.14-109.05,165.02-312.21,221.38-189.79,52.69-460.85,94.24-783.16,126.35-810.81,80.48-1949.3,100.53-2931.43,81.13-51.25-1.05-100.14-1.97-149.68-2.88-555.61-10.35-1173.88-21.76-1725.96-111.02-13.5,26.08-27.26,52.04-41.29,77.59l.26.13ZM3379.84,1302.21c11.4,16.38,20.45,34.87,26.74,54.39,7.86,24.12,11.53,50.2,10.62,75.76-1.05,25.95-6.95,51.77-18.48,75.1-12.45,25.43-31.2,47.84-56.75,64.36,20.32,4.72,42.07,9.83,64.09,14.68,23.59,5.24,47.71,10.62,74.84,15.47,24.9,4.46,49.55,7.86,73.4,9.18,38.8,2.1,75.37-1.57,106.04-4.59,31.72-3.15,57.8-5.64,78.77-1.7,28.97,5.51,46.66,18.74,50.07,45.74,9.04-11.14,21.1-28.44,23.07-48.23,1.97-19.01.66-38.54-.39-55.71-1.05-16.38-1.97-31.06-.52-44.56.79-6.55,2.62-14.16,4.59-22.81,3.54-15.07,8.13-34.21,4.85-51.77-2.62-14.02-8.26-23.46-13.76-32.9-6.29-10.62-12.45-21.36-17.3-36.7-2.49-8-4.46-16.78-5.64-27-1.18-9.31-1.57-20.32-1.18-33.42.92-32.37-13.37-43.65-27.39-54.53-7.86-6.16-15.73-12.19-23.33-20.84-49.41-55.18-108.27-20.84-171.57,15.99-30.15,17.56-61.21,35.65-94.77,47.97-27.26,9.96-56.23,14.68-85.85,15.99l-.13.13ZM2072.92,888.28c-10.88-16.78-18.09-39.45-18.22-71.17l-.26-47.45-105.12-3.15-2.88,63.31-19.53,6.82c-1.31.39-2.49.92-3.8,1.31,35.39,25.03,79.69,34.73,119.8,43.52,9.96,2.23,19.79,4.33,29.88,6.82h.13ZM2129.28,859.45c9.31,11.01,21.89,17.17,32.51,22.28,19.01,9.31,35.52,17.3,43.25,30.54,14.68,1.7,29.49,3.15,44.3,4.59-9.7-6.82-20.05-13.24-30.8-19.4-27-15.34-57.02-28.18-89.26-38.14v.13Z"></path></svg>