<svg xmlns="http://www.w3.org/2000/svg" id="Layer_1" data-name="Layer 1" viewBox="0 0 92.59 83.7"><defs><style>      .cls-1{fill:#45D300;        stroke-width: 0px;      }    </style></defs><path class="cls-1" d="M87.09,36.13C64.13,11.82,36.24,0,1.85,0,1.31,0,.81.22.46.63.11,1.04-.06,1.57.02,2.11l11.11,80c.13.91.91,1.59,1.84,1.59h71.11c.61,0,1.18-.32,1.54-.82.28-.43,6.98-10.52,6.98-21.04,0-11.11-4.91-24.52-5.11-25.09-.08-.22-.22-.44-.39-.63h0ZM83.52,37.78h-12.26l-1.61-12.37c4.81,3.65,9.44,7.76,13.87,12.37h0ZM66.59,30.67l.93,7.11H29.37l6.8-12.83c.48-.91.13-2.02-.78-2.5s-2.02-.13-2.5.78l-7.7,14.56h-8.41l-3.43-22.2c-.11-.74.09-1.5.59-2.07.5-.57,1.2-.91,1.96-.91h1.5c2.72,0,5.74.41,8.89,1.09l-3.85,7.3c-.48.91-.13,2.02.78,2.5.28.15.57.22.87.22.67,0,1.32-.35,1.63-.98l4.28-8.11c5,1.39,10.22,3.33,15.11,5.41l-5.2,9.85c-.48.91-.13,2.02.78,2.5.28.15.57.22.87.22.67,0,1.32-.35,1.63-.98l5.33-10.09c8.52,3.83,15.56,7.74,17.98,9.13.02,0,.05,0,.09.02h0ZM3.98,3.72c23.5.35,43.82,6.52,61.54,18.68l.48,3.7c-8.68-4.78-32.85-17.22-48.59-17.22h-1.5c-1.83,0-3.57.8-4.78,2.2-1.2,1.39-1.72,3.24-1.45,5.05l3.33,21.65h-4.31S3.98,3.72,3.98,3.72ZM83.05,80H14.57l-5.35-38.52h75.93c1.45,4.65,3.74,13.17,3.74,20.37,0,7.78-4.34,15.65-5.84,18.15h0ZM82.57,75.26c-.09.95-.91,1.67-1.83,1.67h-.18l-63.34-6.55c-1.02-.11-1.76-1.02-1.65-2.04.11-1.02,1.04-1.74,2.04-1.65l63.33,6.55c1,.09,1.75,1,1.63,2.02ZM19.63,59.26h15.56c1.02,0,1.85-.83,1.85-1.85v-6.67c0-1.02-.83-1.85-1.85-1.85h-15.56c-1.02,0-1.85.83-1.85,1.85v6.67c0,1.02.83,1.85,1.85,1.85h0ZM21.48,52.59h11.85v2.96h-11.85v-2.96ZM38.7,57.41c0-1.74,1.41-3.15,3.15-3.15s3.15,1.41,3.15,3.15-1.41,3.15-3.15,3.15-3.15-1.41-3.15-3.15Z"></path></svg>