<svg xmlns="http://www.w3.org/2000/svg" id="Layer_1" data-name="Layer 1" viewBox="0 0 95.91 54.92"><defs><style>      .cls-1{fill:#45D300;        stroke-width: 0px;      }    </style></defs><path class="cls-1" d="M95.89,44.78l-4.86-39.08c-.4-3.25-3.18-5.7-6.45-5.7H18.22c-3.27,0-6.05,2.45-6.45,5.7l-.2,1.64h-.23c-3.27,0-6.05,2.45-6.45,5.7L.02,52.11c-.09.71.13,1.43.61,1.96s1.16.84,1.87.84h84.02c.72,0,1.4-.31,1.87-.84.47-.54.7-1.25.61-1.96l-.56-4.52h4.97c.72,0,1.4-.31,1.87-.84.47-.54.7-1.25.61-1.96ZM3.07,51.92L7.86,13.4c.22-1.75,1.71-3.07,3.47-3.07h66.35c1.76,0,3.26,1.32,3.47,3.07l4.79,38.52H3.07ZM88.06,44.59l-3.93-31.56c-.4-3.25-3.18-5.7-6.45-5.7H14.59l.16-1.27c.22-1.75,1.71-3.07,3.47-3.07h66.35c1.76,0,3.26,1.32,3.47,3.07l4.79,38.52h-4.78ZM10.86,22.59c-.59-.59-.59-1.54,0-2.12l6.08-6.08c.59-.59,1.54-.59,2.12,0,.59.59.59,1.54,0,2.12l-6.08,6.08c-.29.29-.68.44-1.06.44s-.77-.15-1.06-.44ZM25.29,15.31c.59.59.59,1.54,0,2.12l-12.76,12.76c-.29.29-.68.44-1.06.44s-.77-.15-1.06-.44c-.59-.59-.59-1.54,0-2.12l12.76-12.76c.59-.59,1.54-.59,2.12,0ZM64.17,40.26c-.59-.59-.59-1.54,0-2.12l6.08-6.08c.59-.59,1.54-.59,2.12,0s.59,1.54,0,2.12l-6.08,6.08c-.29.29-.68.44-1.06.44s-.77-.15-1.06-.44ZM78.61,32.98c.59.59.59,1.54,0,2.12l-12.76,12.76c-.29.29-.68.44-1.06.44s-.77-.15-1.06-.44c-.59-.59-.59-1.54,0-2.12l12.76-12.76c.59-.59,1.54-.59,2.12,0Z"></path></svg>