<svg xmlns="http://www.w3.org/2000/svg" id="Layer_1" data-name="Layer 1" viewBox="0 0 7.94 5.82"><defs><style>      .cls-1{fill:#45D300;        fill-rule: evenodd;        stroke-width: 0px;      }    </style></defs><path class="cls-1" d="M3.72,0c-.07,0-.13.03-.18.07L.08,3.39C.03,3.44,0,3.51,0,3.58v1.98c0,.15.12.26.27.26h7.41c.15,0,.26-.12.26-.26V.26C7.94.12,7.82,0,7.67,0h-3.96ZM3.82.53h3.59v4.76H.53v-1.6L3.82.53ZM3.94,1.04c-.07,0-.13.03-.18.08l-.76.78c-.1.1-.1.27,0,.37.1.1.27.1.37,0,0,0,0,0,0,0l.76-.78c.1-.1.11-.27,0-.37-.05-.05-.13-.08-.2-.08ZM5.82,1.57c-.07,0-.14.03-.18.08l-2.29,2.26c-.11.09-.13.26-.03.37.09.11.26.13.37.03.01,0,.02-.02.03-.03l2.29-2.26c.11-.1.11-.27,0-.37-.05-.05-.12-.08-.19-.08ZM6.61,3.42s0,0,0,0c-.07,0-.13.03-.18.08l-.79.81c-.11.1-.11.27-.01.37.1.11.27.11.37.01,0,0,.01,0,.01-.02l.79-.81c.1-.1.11-.27,0-.37-.05-.05-.12-.08-.2-.08Z"></path></svg>