<svg xmlns="http://www.w3.org/2000/svg" id="Layer_1" data-name="Layer 1" viewBox="0 0 63.07 25.25"><defs><style>      .cls-1{fill:#45D300;        stroke-width: 0px;      }    </style></defs><path class="cls-1" d="M62.97,22.35L51.97,1.35c-.1-.1-.2-.2-.4-.3C38.27-.35,24.77-.35,11.47,1.05c-.2,0-.3.1-.4.3L.08,22.35c-.1.1-.1.3,0,.5.1.1.2.2.4.3,10.3,1.4,20.7,2.1,31.1,2.1s20.8-.7,31.1-2.1c.2,0,.3-.1.4-.3,0-.1,0-.3-.1-.5ZM11.87,2.05c3.7-.4,7.4-.6,11.1-.8l-2.6,5.5-.2.5.3.3,1.2,1.2-1.6,2.3-.2.3.2.2,1.1.9-2.3,3.8,2.9-3.7.1-.2-.2-.2-.9-1,2-2.3.3-.3-.3-.4-1-1.2,3.3-5.8,1.4-.1c8.2-.2,16.5.1,24.7.9l8.8,16.9h-6.7c-.3-.5-.9-.9-1.6-1.3-1.4-2.1-3.9-3.6-6.6-3.6s-5.2,1.4-6.6,3.6c-.7.4-1.3.8-1.6,1.3H3.07L11.87,2.05ZM40.37,17.05c1.2-1.1,2.9-1.8,4.7-1.8s3.5.7,4.7,1.8c-1.4-.4-3-.6-4.7-.6s-3.3.2-4.7.6Z"></path></svg>